<?xml version="1.0" encoding="UTF-8" standalone="no"?>
<!DOCTYPE svg PUBLIC "-//W3C//DTD SVG 1.1//EN" "http://www.w3.org/Graphics/SVG/1.1/DTD/svg11.dtd">
<svg width="100%" height="100%" viewBox="0 0 1280 1024" version="1.1" xmlns="http://www.w3.org/2000/svg" xmlns:xlink="http://www.w3.org/1999/xlink" xml:space="preserve" xmlns:serif="http://www.serif.com/" style="fill-rule:evenodd;clip-rule:evenodd;stroke-linejoin:round;stroke-miterlimit:2;">
    <g transform="matrix(1,0,0,1,-14.4803,3.1736)">
        <g transform="matrix(0.534697,0,0,0.534697,16.7546,7.73686)">
            <g transform="matrix(3.03224,0,0,3.03224,-577.638,185.756)">
                <circle cx="456.952" cy="247.874" r="95.199" style="fill:rgb(121,213,198);"/>
            </g>
            <g transform="matrix(3.90236,0,0,3.90236,-804.821,136.133)">
                <path d="M465.95,186.532C468.159,192.518 469.364,198.99 469.364,205.742C469.364,236.445 444.437,261.373 413.733,261.373L413.514,261.367C414.384,253.825 416.505,244.349 421.467,238.359C432.745,224.744 453.249,213.533 462.686,195.023C464.09,192.27 465.162,189.406 465.95,186.532Z" style="fill:rgb(45,96,20);"/>
            </g>
            <g transform="matrix(3.90236,0,0,3.90236,-804.821,136.133)">
                <path d="M401.151,259.923C376.496,254.228 358.103,232.116 358.103,205.742C358.103,175.039 383.03,150.112 413.733,150.112C431.133,150.112 446.678,158.117 456.878,170.65L456.697,174.125C456.194,181.342 451.261,194.582 443.598,201.824C433.939,210.951 418.632,223.905 413.764,229.488C404.812,239.757 401.878,251.227 401.151,259.923Z" style="fill:rgb(255,251,7);"/>
            </g>
        </g>
        <g transform="matrix(1.18751,0,0,1.18751,-685.712,-715.07)">
            <path d="M641.788,1161.33L641.788,899.951L698.084,899.951L698.084,1117.1L807.327,1117.1L807.327,1161.33L641.788,1161.33Z" style="fill:rgb(121,213,198);fill-rule:nonzero;"/>
        </g>
        <g transform="matrix(1.18751,0,0,1.18751,-667.389,-715.07)">
            <path d="M1097.52,1161.33L1097.52,899.951L1152.48,899.951L1152.48,1000.48L1172.58,1000.48L1247.65,899.951L1309.97,899.951L1309.97,901.962L1219.5,1019.92L1324.72,1159.32L1324.72,1161.33L1257.7,1161.33L1172.58,1044.71L1152.48,1044.71L1152.48,1161.33L1097.52,1161.33Z" style="fill:rgb(121,213,198);fill-rule:nonzero;"/>
        </g>
        <g transform="matrix(1.18751,0,0,1.18751,-610.375,-715.07)">
            <path d="M1305.95,1161.33L1305.95,1159.32L1384.7,899.951L1472.83,899.951L1551.92,1159.32L1551.92,1161.33L1494.28,1161.33L1430.94,943.514L1422.9,943.514L1358.9,1161.33L1305.95,1161.33ZM1371.3,1095.98L1383.03,1053.76L1470.82,1053.76L1482.55,1095.98L1371.3,1095.98Z" style="fill:rgb(121,213,198);fill-rule:nonzero;"/>
        </g>
    </g>
</svg>
